rotated_Sprint_07200001_forces_filt10Hz.mot
version=1
nRows=43
nColumns=19
inDegrees=yes
endheader
time	R_ground_force_vx	R_ground_force_vy	R_ground_force_vz	R_ground_force_px	R_ground_force_py	R_ground_force_pz	R_ground_torque_x	R_ground_torque_y	R_ground_torque_z	L_ground_force_vx	L_ground_force_vy	L_ground_force_vz	L_ground_force_px	L_ground_force_py	L_ground_force_pz	L_ground_torque_x	L_ground_torque_y	L_ground_torque_z	
1.589500	  0.000000	  0.000000	  0.000000	  0.137100	  0.000000	 -0.297543	  0.000000	  0.000000	  0.000000	  0.000000	  0.000000	  0.000000	  1.188521	  0.000000	 -0.173431	  0.000000	  0.000000	  0.000000
1.590000	  0.000000	  0.000000	  0.000000	  0.136045	  0.000000	 -0.300356	  0.000000	  0.000000	  0.000000	  0.000000	  0.000000	  0.000000	  1.190364	  0.000000	 -0.172987	  0.000000	  0.000000	  0.000000
1.590500	  0.000000	  0.000000	  0.000000	  0.135233	  0.000000	 -0.303192	  0.000000	  0.000000	  0.000000	  0.000000	  0.000000	  0.000000	  1.191770	  0.000000	 -0.172731	  0.000000	  0.000000	  0.000000
1.591000	  0.000000	  0.000000	  0.000000	  0.134422	  0.000000	 -0.306028	  0.000000	  0.000000	  0.000000	  0.000000	  0.000000	  0.000000	  1.193176	  0.000000	 -0.172475	  0.000000	  0.000000	  0.000000
1.591500	  0.000000	  0.000000	  0.000000	  0.133610	  0.000000	 -0.308865	  0.000000	  0.000000	  0.000000	  0.000000	  0.000000	  0.000000	  1.194582	  0.000000	 -0.172218	  0.000000	  0.000000	  0.000000
1.592000	  0.000000	  0.000000	  0.000000	  0.132799	  0.000000	 -0.311701	  0.000000	  0.000000	  0.000000	  0.000000	  0.000000	  0.000000	  1.195988	  0.000000	 -0.171962	  0.000000	  0.000000	  0.000000
1.592500	  0.000000	  0.000000	  0.000000	  0.131987	  0.000000	 -0.314537	  0.000000	  0.000000	  0.000000	  0.000000	  0.000000	  0.000000	  1.197394	  0.000000	 -0.171706	  0.000000	  0.000000	  0.000000
1.593000	  0.000000	  0.000000	  0.000000	  0.131175	  0.000000	 -0.317373	  0.000000	  0.000000	  0.000000	  0.000000	  0.000000	  0.000000	  1.198800	  0.000000	 -0.171450	  0.000000	  0.000000	  0.000000
1.593500	  0.000000	  0.000000	  0.000000	  0.130364	  0.000000	 -0.320209	  0.000000	  0.000000	  0.000000	  0.000000	  0.000000	  0.000000	  1.200206	  0.000000	 -0.171194	  0.000000	  0.000000	  0.000000
1.594000	  0.000000	  0.000000	  0.000000	  0.129552	  0.000000	 -0.323046	  0.000000	  0.000000	  0.000000	  0.000000	  0.000000	  0.000000	  1.201612	  0.000000	 -0.170937	  0.000000	  0.000000	  0.000000
1.594500	  0.000000	  0.000000	  0.000000	  0.128741	  0.000000	 -0.325882	  0.000000	  0.000000	  0.000000	  0.000000	  0.000000	  0.000000	  1.203018	  0.000000	 -0.170681	  0.000000	  0.000000	  0.000000
1.595000	  0.000000	  0.000000	  0.000000	  0.127929	  0.000000	 -0.328718	  0.000000	  0.000000	  0.000000	  0.000000	  0.000000	  0.000000	  1.204424	  0.000000	 -0.170425	  0.000000	  0.000000	  0.000000
1.595500	  0.000000	  0.000000	  0.000000	  0.127341	  0.000000	 -0.331542	  0.000000	  0.000000	  0.000000	  0.000000	  0.000000	  0.000000	  1.205402	  0.000000	 -0.170282	  0.000000	  0.000000	  0.000000
1.596000	  0.000000	  0.000000	  0.000000	  0.126754	  0.000000	 -0.334365	  0.000000	  0.000000	  0.000000	  0.000000	  0.000000	  0.000000	  1.206380	  0.000000	 -0.170139	  0.000000	  0.000000	  0.000000
1.596500	  0.000000	  0.000000	  0.000000	  0.126166	  0.000000	 -0.337189	  0.000000	  0.000000	  0.000000	  0.000000	  0.000000	  0.000000	  1.207358	  0.000000	 -0.169997	  0.000000	  0.000000	  0.000000
1.597000	  0.000000	  0.000000	  0.000000	  0.125578	  0.000000	 -0.340013	  0.000000	  0.000000	  0.000000	  0.000000	  0.000000	  0.000000	  1.208336	  0.000000	 -0.169854	  0.000000	  0.000000	  0.000000
1.597500	  0.000000	  0.000000	  0.000000	  0.124991	  0.000000	 -0.342836	  0.000000	  0.000000	  0.000000	  0.000000	  0.000000	  0.000000	  1.209314	  0.000000	 -0.169711	  0.000000	  0.000000	  0.000000
1.598000	  0.000000	  0.000000	  0.000000	  0.124403	  0.000000	 -0.345660	  0.000000	  0.000000	  0.000000	  0.000000	  0.000000	  0.000000	  1.210292	  0.000000	 -0.169568	  0.000000	  0.000000	  0.000000
1.598500	  0.000000	  0.000000	  0.000000	  0.123815	  0.000000	 -0.348484	  0.000000	  0.000000	  0.000000	  0.000000	  0.000000	  0.000000	  1.211270	  0.000000	 -0.169425	  0.000000	  0.000000	  0.000000
1.599000	  0.000000	  0.000000	  0.000000	  0.123227	  0.000000	 -0.351308	  0.000000	  0.000000	  0.000000	  0.000000	  0.000000	  0.000000	  1.212248	  0.000000	 -0.169283	  0.000000	  0.000000	  0.000000
1.599500	  0.000000	  0.000000	  0.000000	  0.122640	  0.000000	 -0.354131	  0.000000	  0.000000	  0.000000	  0.000000	  0.000000	  0.000000	  1.213226	  0.000000	 -0.169140	  0.000000	  0.000000	  0.000000
1.600000	  0.000000	  0.000000	  0.000000	  0.122052	  0.000000	 -0.356955	  0.000000	  0.000000	  0.000000	  0.000000	  0.000000	  0.000000	  1.214204	  0.000000	 -0.168997	  0.000000	  0.000000	  0.000000
1.600500	  0.000000	  0.000000	  0.000000	  0.121758	  0.000000	 -0.359736	  0.000000	  0.000000	  0.000000	  0.000000	  0.000000	  0.000000	  1.214763	  0.000000	 -0.168886	  0.000000	  0.000000	  0.000000
1.601000	  0.000000	  0.000000	  0.000000	  0.121464	  0.000000	 -0.362518	  0.000000	  0.000000	  0.000000	  0.000000	  0.000000	  0.000000	  1.215322	  0.000000	 -0.168775	  0.000000	  0.000000	  0.000000
1.601500	  0.000000	  0.000000	  0.000000	  0.121169	  0.000000	 -0.365299	  0.000000	  0.000000	  0.000000	  0.000000	  0.000000	  0.000000	  1.215882	  0.000000	 -0.168664	  0.000000	  0.000000	  0.000000
1.602000	  0.000000	  0.000000	  0.000000	  0.120875	  0.000000	 -0.368080	  0.000000	  0.000000	  0.000000	  0.000000	  0.000000	  0.000000	  1.216441	  0.000000	 -0.168553	  0.000000	  0.000000	  0.000000
1.602500	  0.000000	  0.000000	  0.000000	  0.120581	  0.000000	 -0.370862	  0.000000	  0.000000	  0.000000	  0.000000	  0.000000	  0.000000	  1.217000	  0.000000	 -0.168442	  0.000000	  0.000000	  0.000000
1.603000	  0.000000	  0.000000	  0.000000	  0.120287	  0.000000	 -0.373643	  0.000000	  0.000000	  0.000000	  0.000000	  0.000000	  0.000000	  1.217559	  0.000000	 -0.168332	  0.000000	  0.000000	  0.000000
1.603500	  0.000000	  0.000000	  0.000000	  0.119993	  0.000000	 -0.376424	  0.000000	  0.000000	  0.000000	  0.000000	  0.000000	  0.000000	  1.218118	  0.000000	 -0.168221	  0.000000	  0.000000	  0.000000
1.604000	  0.000000	  0.000000	  0.000000	  0.119698	  0.000000	 -0.379205	  0.000000	  0.000000	  0.000000	  0.000000	  0.000000	  0.000000	  1.218678	  0.000000	 -0.168110	  0.000000	  0.000000	  0.000000
1.604500	  0.000000	  0.000000	  0.000000	  0.119404	  0.000000	 -0.381987	  0.000000	  0.000000	  0.000000	  0.000000	  0.000000	  0.000000	  1.219237	  0.000000	 -0.167999	  0.000000	  0.000000	  0.000000
1.605000	  0.000000	  0.000000	  0.000000	  0.119110	  0.000000	 -0.384768	  0.000000	  0.000000	  0.000000	  0.000000	  0.000000	  0.000000	  1.219796	  0.000000	 -0.167888	  0.000000	  0.000000	  0.000000
1.605500	  0.000000	  0.000000	  0.000000	  0.119197	  0.000000	 -0.387470	  0.000000	  0.000000	  0.000000	  0.000000	  0.000000	  0.000000	  1.219980	  0.000000	 -0.167747	  0.000000	  0.000000	  0.000000
1.606000	  0.000000	  0.000000	  0.000000	  0.119283	  0.000000	 -0.390172	  0.000000	  0.000000	  0.000000	  0.000000	  0.000000	  0.000000	  1.220164	  0.000000	 -0.167607	  0.000000	  0.000000	  0.000000
1.606500	  0.000000	  0.000000	  0.000000	  0.119370	  0.000000	 -0.392874	  0.000000	  0.000000	  0.000000	  0.000000	  0.000000	  0.000000	  1.220348	  0.000000	 -0.167466	  0.000000	  0.000000	  0.000000
1.607000	  0.000000	  0.000000	  0.000000	  0.119456	  0.000000	 -0.395576	  0.000000	  0.000000	  0.000000	  0.000000	  0.000000	  0.000000	  1.220532	  0.000000	 -0.167325	  0.000000	  0.000000	  0.000000
1.607500	  0.000000	  0.000000	  0.000000	  0.119543	  0.000000	 -0.398277	  0.000000	  0.000000	  0.000000	  0.000000	  0.000000	  0.000000	  1.220716	  0.000000	 -0.167185	  0.000000	  0.000000	  0.000000
1.608000	  0.000000	  0.000000	  0.000000	  0.119630	  0.000000	 -0.400979	  0.000000	  0.000000	  0.000000	  0.000000	  0.000000	  0.000000	  1.220901	  0.000000	 -0.167044	  0.000000	  0.000000	  0.000000
1.608500	  0.000000	  0.000000	  0.000000	  0.119716	  0.000000	 -0.403681	  0.000000	  0.000000	  0.000000	  0.000000	  0.000000	  0.000000	  1.221085	  0.000000	 -0.166903	  0.000000	  0.000000	  0.000000
1.609000	  0.000000	  0.000000	  0.000000	  0.119803	  0.000000	 -0.406383	  0.000000	  0.000000	  0.000000	  0.000000	  0.000000	  0.000000	  1.221269	  0.000000	 -0.166762	  0.000000	  0.000000	  0.000000
1.609500	  0.000000	  0.000000	  0.000000	  0.119889	  0.000000	 -0.409085	  0.000000	  0.000000	  0.000000	  0.000000	  0.000000	  0.000000	  1.221453	  0.000000	 -0.166622	  0.000000	  0.000000	  0.000000
1.610000	  0.000000	  0.000000	  0.000000	  0.119976	  0.000000	 -0.411787	  0.000000	  0.000000	  0.000000	  0.000000	  0.000000	  0.000000	  1.221637	  0.000000	 -0.166481	  0.000000	  0.000000	  0.000000
1.610500	  0.000000	  0.000000	  0.000000	  0.120370	  0.000000	 -0.414367	  0.000000	  0.000000	  0.000000	  0.000000	  0.000000	  0.000000	  1.221536	  0.000000	 -0.166311	  0.000000	  0.000000	  0.000000
